<?xml version="1.0" encoding="utf-8"?>
<!-- Generator: Adobe Illustrator 16.0.0, SVG Export Plug-In . SVG Version: 6.00 Build 0)  -->
<!DOCTYPE svg PUBLIC "-//W3C//DTD SVG 1.1//EN" "http://www.w3.org/Graphics/SVG/1.1/DTD/svg11.dtd">
<svg version="1.1" id="Layer_1" xmlns="http://www.w3.org/2000/svg" xmlns:xlink="http://www.w3.org/1999/xlink" x="0px" y="0px"
	 width="9.398px" height="16px" viewBox="0 0 9.398 16" enable-background="new 0 0 9.398 16" xml:space="preserve">
<g>
	<g>
		<path fill="#303030" d="M6.24,7.997l-5.984,5.985C0.09,14.148,0,14.367,0,14.602c0,0.235,0.09,0.455,0.256,0.619l0.523,0.523
			C0.944,15.909,1.164,16,1.399,16s0.453-0.091,0.619-0.256l7.127-7.126c0.164-0.165,0.256-0.387,0.254-0.621
			c0.002-0.236-0.09-0.456-0.254-0.622L2.024,0.256C1.86,0.091,1.639,0,1.405,0S0.951,0.091,0.785,0.256L0.262,0.779
			c-0.342,0.342-0.342,0.896,0,1.238L6.24,7.997z"/>
	</g>
</g>
</svg>
