<?xml version="1.0" encoding="utf-8"?>
<!-- Generator: Adobe Illustrator 16.0.0, SVG Export Plug-In . SVG Version: 6.00 Build 0)  -->
<!DOCTYPE svg PUBLIC "-//W3C//DTD SVG 1.1//EN" "http://www.w3.org/Graphics/SVG/1.1/DTD/svg11.dtd">
<svg version="1.1" id="Layer_1" xmlns="http://www.w3.org/2000/svg" xmlns:xlink="http://www.w3.org/1999/xlink" x="0px" y="0px"
	 width="9.398px" height="16px" viewBox="0 0 9.398 16" enable-background="new 0 0 9.398 16" xml:space="preserve">
<g>
	<g>
		<path fill="#303030" d="M3.158,8.003l5.984-5.986c0.165-0.165,0.256-0.384,0.256-0.619S9.308,0.944,9.143,0.779L8.619,0.256
			C8.455,0.091,8.235,0,8,0S7.546,0.091,7.381,0.256L0.254,7.382C0.089,7.547-0.002,7.769-0.001,8.003
			c-0.001,0.236,0.09,0.456,0.255,0.622l7.121,7.119C7.539,15.909,7.76,16,7.994,16c0.233,0,0.453-0.091,0.619-0.256l0.522-0.523
			c0.342-0.342,0.342-0.896,0-1.238L3.158,8.003z"/>
	</g>
</g>
</svg>
